<svg width="239" height="39" viewBox="0 0 239 39" fill="none" xmlns="http://www.w3.org/2000/svg">
<g clip-path="url(#clip0_70_1000)">
<g clip-path="url(#clip1_70_1000)">
<mask id="mask0_70_1000" style="mask-type:luminance" maskUnits="userSpaceOnUse" x="0" y="0" width="239" height="39">
<path d="M238.486 0.973267H0.798828V38.1814H238.486V0.973267Z" fill="white"/>
</mask>
<g mask="url(#mask0_70_1000)">
<path d="M153.343 36.3574V2.18604H182.43V9.75298H163.256V15.4165H180.632V22.9835H163.256V28.7693H182.43V36.3568L153.343 36.3574Z" fill="black"/>
<path d="M89.0387 38.1814C83.8772 38.1814 79.4831 36.4187 75.9271 32.8258C72.3709 29.2329 70.6267 24.7923 70.6267 19.5771C70.6267 14.3618 72.3704 9.99534 75.928 6.3997C79.4862 2.80378 83.8772 0.973267 89.0387 0.973267C94.1995 0.973267 98.5936 2.80557 102.149 6.39939C105.706 9.99326 107.52 14.3636 107.52 19.5771C107.52 24.7905 105.706 29.2316 102.149 32.8258C98.5929 36.4196 94.2003 38.1814 89.0387 38.1814ZM89.0387 29.3021C91.759 29.3021 93.9893 28.3861 95.8038 26.5533C97.6184 24.7203 98.5225 22.3962 98.5225 19.5771C98.5225 16.758 97.6168 14.4341 95.8038 12.6015C93.9901 10.7691 91.759 9.85346 89.0387 9.85346C86.3177 9.85346 84.0882 10.7685 82.2737 12.6015C80.5294 14.4338 79.6237 16.7577 79.6237 19.5771C79.6237 22.3965 80.5294 24.7218 82.2729 26.553C84.0866 28.3858 86.3169 29.3018 89.038 29.3018" fill="black"/>
<path d="M56.1705 2.19996H47.9512L35.3255 28.1971V2.19458H17.3534L0.798828 36.3507H10.4331L25.4267 5.77438L25.4051 36.3666L39.2373 36.3653C40.3233 36.3653 41.3377 35.6676 41.8239 34.6866L56.1705 5.7454V36.3659H66.0693V2.19458L56.1705 2.19996Z" fill="black"/>
<path d="M139.313 2.20776L121.977 32.8379V2.20776H112.078V36.366H128.655C129.757 36.366 130.776 35.7782 131.337 34.8198L150.42 2.20776H139.313Z" fill="black"/>
<path d="M200.976 10.8075H199.787L199.538 2.45392H199.515L197.329 10.8075H195.234L193.173 2.45392H193.15L192.901 10.8075H191.78L192.041 2.33923H194.34L196.31 10.6929H196.333L198.417 2.33923H200.704L200.976 10.8075Z" fill="black"/>
<path d="M202.437 6.57341C202.437 3.83854 203.819 2.22485 206.163 2.22485C208.507 2.22485 209.878 3.83824 209.878 6.57341C209.878 9.30857 208.496 10.9219 206.163 10.9219C203.83 10.9219 202.437 9.30826 202.437 6.57341ZM208.654 6.57341C208.654 4.45648 207.726 3.20895 206.163 3.20895C204.6 3.20895 203.649 4.45617 203.649 6.57341C203.649 8.69064 204.578 9.93786 206.163 9.93786C207.748 9.93786 208.654 8.69064 208.654 6.57341Z" fill="black"/>
<path d="M217.726 8.37013C217.726 9.90352 216.673 10.8075 214.872 10.8075H211.463V2.33923H214.793C216.242 2.33923 217.092 3.04886 217.092 4.26174C217.092 5.36022 216.254 6.01251 214.838 6.01251V6.0355H214.997C216.718 6.0355 217.726 6.90545 217.726 8.37013ZM214.408 3.28928H212.652V6.0128H214.408C215.325 6.0128 215.868 5.5206 215.868 4.66254C215.868 3.80448 215.325 3.28928 214.408 3.28928ZM216.503 8.37013C216.503 7.45475 215.914 6.90551 214.929 6.90551H212.652V9.85777H214.929C215.914 9.85777 216.503 9.29718 216.503 8.37013Z" fill="black"/>
<path d="M219.222 2.33923H220.41V10.8075H219.222V2.33923Z" fill="black"/>
<path d="M227.432 9.82345V10.8075H222.449V2.33923H223.638V9.82314L227.432 9.82345Z" fill="black"/>
<path d="M234.352 9.85777V10.8075H228.666V2.33923H234.227V3.28899H229.855V5.96681H233.831V6.92821H229.855V9.85777H234.351H234.352Z" fill="black"/>
<path d="M193.093 16.0087V18.7779H196.503V19.7277H193.093V23.527H191.905V15.059H197.092V16.0087H193.093Z" fill="black"/>
<path d="M198.382 15.059H199.572V23.5273H198.382V15.059Z" fill="black"/>
<path d="M207.941 23.527H206.605L204.611 19.9795H202.799V23.527H201.61V15.059H204.69C206.559 15.059 207.669 15.94 207.669 17.4163C207.669 19.0183 206.582 19.9567 204.747 19.9567V19.9798C205.438 19.9798 206.118 20.3802 206.525 21.1013L207.941 23.527ZM204.77 19.064C205.835 19.064 206.446 18.4918 206.446 17.5077C206.446 16.5236 205.823 16.0087 204.77 16.0087H202.799V19.064H204.77Z" fill="black"/>
<path d="M208.688 20.5976H209.866C209.956 21.8908 210.761 22.6575 212.029 22.6575C213.298 22.6575 214.113 22.1082 214.113 21.1585C214.113 19.9913 213.004 19.8195 211.825 19.6364C210.455 19.419 208.926 19.1786 208.926 17.3935C208.926 15.8142 210.07 14.9445 212.007 14.9445C213.819 14.9445 214.963 16.0316 215.087 17.851H213.92C213.852 16.6382 213.116 15.9285 211.961 15.9285C210.806 15.9285 210.126 16.4321 210.126 17.3132C210.126 18.3086 211.146 18.469 212.267 18.6407C213.694 18.8695 215.325 19.1213 215.325 21.0555C215.325 22.6804 214.09 23.6416 212.006 23.6416C210.058 23.6416 208.824 22.5201 208.688 20.5976H208.688Z" fill="black"/>
<path d="M222.086 16.0087H219.549V23.527H218.361V16.0087H215.823V15.059H222.086V16.0087Z" fill="black"/>
<path d="M196.718 34.1137H192.878L192.221 36.2423H191.01L193.796 27.7739H195.891L198.654 36.2423H197.374L196.718 34.1137ZM196.423 33.1523L194.815 27.8883H194.792L193.173 33.1523H196.423Z" fill="black"/>
<path d="M206.423 31.8249V36.2421H205.313V33.1868H205.291C205.291 35.178 204.215 36.3565 202.38 36.3565C200.455 36.3565 199.243 34.7431 199.243 32.008C199.243 29.2728 200.625 27.6594 202.958 27.6594C204.816 27.6594 206.072 28.8266 206.356 30.7721H205.223C204.974 29.4445 204.124 28.6435 202.958 28.6435C201.384 28.6435 200.466 29.8907 200.466 32.008C200.466 34.1252 201.361 35.3724 202.891 35.3724C204.419 35.3724 205.235 34.3653 205.28 32.6716H202.777V31.8249H206.423Z" fill="black"/>
<path d="M213.796 35.2921V36.2419H208.111V27.7736H213.672V28.7233H209.3V31.4012H213.276V32.3625H209.3V35.2921H213.796Z" fill="black"/>
<path d="M221.667 27.7739V36.2423H219.64L216.412 27.8886H216.389L216.435 36.2423H215.291V27.7739H217.33L220.557 36.1276H220.58L220.546 27.7739H221.667Z" fill="black"/>
<path d="M226.945 36.3565C224.623 36.3565 223.253 34.7431 223.253 32.008C223.253 29.2728 224.623 27.6594 226.945 27.6594C228.847 27.6594 230.127 28.861 230.411 30.8635H229.278C229.017 29.4672 228.157 28.6435 226.945 28.6435C225.394 28.6435 224.465 29.8907 224.465 32.008C224.465 34.1252 225.394 35.3724 226.945 35.3724C228.168 35.3724 229.017 34.5258 229.278 33.0951H230.411C230.127 35.132 228.837 36.3565 226.945 36.3565Z" fill="black"/>
<path d="M238.486 27.7739L234.352 36.2423H233.061L234.613 33.0038H233.48L230.931 27.7742H232.302L234.748 32.8895H234.771L237.195 27.7742L238.486 27.7739Z" fill="black"/>
</g>
</g>
</g>
<defs>
<clipPath id="clip0_70_1000">
<rect width="238.08" height="38.64" fill="white" transform="translate(0.77002 0.280029)"/>
</clipPath>
<clipPath id="clip1_70_1000">
<rect width="238.022" height="38.64" fill="white" transform="translate(0.798828 0.280029)"/>
</clipPath>
</defs>
</svg>
